<?xml version="1.0" encoding="UTF-8" standalone="no"?>
<svg width="16px" height="95px" viewBox="0 0 16 95" version="1.1" xmlns="http://www.w3.org/2000/svg" xmlns:xlink="http://www.w3.org/1999/xlink" xmlns:sketch="http://www.bohemiancoding.com/sketch/ns">
    <g id="Page-1" stroke="none" stroke-width="1" fill="none" fill-rule="evenodd" sketch:type="MSPage">
        <g id="noun_264893_cc" sketch:type="MSLayerGroup" fill="#FFFFFF">
            <path d="M15.721,87.299 C15.721,91.552 12.262,95 7.999,95 C3.734,95 0.279,91.552 0.279,87.299 C0.279,83.042 3.734,79.595 7.999,79.595 C12.262,79.597 15.721,83.042 15.721,87.299 L15.721,87.299 L15.721,87.299 Z" id="Shape" sketch:type="MSShapeGroup"></path>
            <path d="M0.279,7.703 C0.279,3.448 3.736,0 8,0 L8,0 C12.264,0 15.721,3.448 15.721,7.703 L15.721,60.643 C15.721,64.898 12.264,68.347 8,68.347 L8,68.347 C3.736,68.347 0.279,64.898 0.279,60.643 L0.279,7.703 L0.279,7.703 Z" id="Shape" sketch:type="MSShapeGroup"></path>
        </g>
    </g>
</svg>
